<svg width="338" height="592" viewBox="0 0 338 592" fill="none" xmlns="http://www.w3.org/2000/svg">
<path d="M67.6429 291.431L101.254 311.675V194.071L67.6429 175.153V291.431Z" fill="#B96A6A"/>
<path d="M67.6429 214.204L34.0322 233.38L67.6429 252.297L101.254 233.25L67.6429 214.204Z" fill="#C23939"/>
<path d="M34.0317 349.657L67.6424 369.901V252.297L34.0317 233.379V349.657Z" fill="#B96A6A"/>
<path d="M101.254 233.019L134.865 253.263V135.659L101.254 116.742V233.019Z" fill="#B96A6A"/>
<path d="M134.865 174.439L168.476 194.683V77.0792L134.865 58.1619V174.439Z" fill="#B96A6A"/>
<path d="M202.088 19.9733L168.477 39.1493L202.088 58.0666L235.699 39.0199L202.088 19.9733Z" fill="#C23939"/>
<path d="M168.477 155.296L202.087 175.54V57.9364L168.477 39.0191V155.296Z" fill="#B96A6A"/>
<path d="M235.699 0.861992L202.089 20.038L235.699 38.9553L269.31 19.9087L235.699 0.861992Z" fill="#C23939"/>
<path d="M34.0317 273.006L0.421021 292.182L34.0317 311.099L67.6424 292.053L34.0317 273.006Z" fill="#C23939"/>
<path d="M0.42041 524.055L34.0311 545.856V311.099L0.42041 292.182V524.055Z" fill="#8C3333"/>
<path d="M269.31 19.7784L235.7 38.8251V38.8891L202.088 57.9358V58.0331L168.477 77.0784V116.613L134.865 135.658V175.024L101.254 194.07V233.25L67.6424 252.296V292.053L34.0317 311.098V545.857L67.6424 526.78L101.254 506.536L135.273 487.069L170.312 466.98L203.793 447.749L238.053 427.893L270.526 409.21L269.31 19.7784Z" fill="#CC3A3A"/>
<path d="M101.254 155.978L67.6434 175.154L101.254 194.071L134.865 175.024L101.254 155.978Z" fill="#C23939"/>
<path d="M134.865 97.5662L101.255 116.742L134.865 135.66L168.476 116.613L134.865 97.5662Z" fill="#C23939"/>
<path d="M168.477 38.9863L134.866 58.1623L168.477 77.0796L202.087 58.0329L168.477 38.9863Z" fill="#C23939"/>
<path d="M38.4222 275.551L10.3502 291.567L34.4049 305.453L62.7969 289.363L38.4222 275.551Z" fill="#FCEBEA"/>
<path d="M38.9244 275.016L38.4218 235.767L62.7964 249.486V289.363L38.9244 275.016Z" fill="#F6C2C1"/>
<path d="M72.2208 216.87V177.866L96.5954 191.449V230.682L72.2208 216.87Z" fill="#F6C2C1"/>
<path d="M105.489 158.637V119.303L129.729 132.944L129.975 172.512L105.489 158.637Z" fill="#F6C2C1"/>
<path d="M139.1 100.403V60.71L163.34 74.3526V114.139L139.1 100.403Z" fill="#F6C2C1"/>
<path d="M72.2208 216.87L38.4221 235.768L62.7968 249.485L96.5955 230.682L72.2208 216.87Z" fill="#FCEBEA"/>
<path d="M105.489 158.637L72.2212 177.867L96.5959 191.448L129.975 172.512L105.489 158.637Z" fill="#FCEBEA"/>
<path d="M139.1 100.193L105.49 119.302L129.728 132.945L163.34 113.929L139.1 100.193Z" fill="#FCEBEA"/>
<path d="M240.21 3.67754L139.1 61.1615L163.34 74.8042L264.615 17.5069L240.21 3.67754Z" fill="#FCEBEA"/>
<path d="M68.2512 372.65L101.862 392.894V275.29L68.2512 256.373V372.65Z" fill="#485B38"/>
<path d="M236.308 42.9666L202.697 62.1426L236.308 81.0599L269.918 62.0133L236.308 42.9666Z" fill="#88A057"/>
<path d="M202.696 178.29L236.307 198.534V80.9298L202.696 62.0124V178.29Z" fill="#B96A6A"/>
<path d="M269.919 23.8553L236.308 43.0313L269.919 61.9487L303.529 42.902L269.919 23.8553Z" fill="#88A057"/>
<path d="M68.2512 295.999L34.6405 315.175L68.2512 334.093L101.862 315.046L68.2512 295.999Z" fill="#88A057"/>
<path d="M72.246 298.314L44.33 314.241L68.2513 328.049L96.486 312.05L72.246 298.314Z" fill="#EEF2E7"/>
<path d="M72.246 298.314V258.621L96.486 272.264V312.05L72.246 298.314Z" fill="#DDE5CE"/>
<path d="M101.863 314.294L135.473 334.538V216.934L101.863 198.017V314.294Z" fill="#485B38"/>
<path d="M105.857 239.959V200.265L130.097 213.908V253.695L105.857 239.959Z" fill="#DDE5CE"/>
<path d="M135.474 255.883L169.084 276.127V158.523L135.474 139.605V255.883Z" fill="#485B38"/>
<path d="M139.469 181.547V141.854L163.709 155.497V195.283L139.469 181.547Z" fill="#DDE5CE"/>
<path d="M169.085 197.336L202.696 217.58V99.9762L169.085 81.0589V197.336Z" fill="#485B38"/>
<path d="M173.08 123.001V83.3074L197.32 96.95V136.737L173.08 123.001Z" fill="#DDE5CE"/>
<path d="M34.64 547.048L68.2507 568.85V334.092L34.64 315.175V547.048Z" fill="#485B38"/>
<path d="M303.53 42.7718L269.919 61.8185V61.8825L236.307 80.9291V81.0265L202.697 100.072V139.605L169.085 158.652V198.017L135.474 217.064V256.244L101.862 275.289V315.045L68.2513 334.092V568.85L101.862 549.773L135.474 529.529L169.493 510.062L204.531 489.973L238.013 470.741L272.273 450.886L304.746 432.204L303.53 42.7718Z" fill="#597A44"/>
<path d="M202.696 61.9795L169.086 81.1555L202.696 100.073L236.307 81.0262L202.696 61.9795Z" fill="#88A057"/>
<path d="M101.862 237.327L68.2518 256.503L101.862 275.42L135.473 256.373L101.862 237.327Z" fill="#88A057"/>
<path d="M105.857 239.642L72.2465 258.751L96.4852 272.394L130.097 253.378L105.857 239.642Z" fill="#EEF2E7"/>
<path d="M135.474 178.971L101.863 198.147L135.474 217.064L169.084 198.018L135.474 178.971Z" fill="#88A057"/>
<path d="M139.469 181.286L105.858 200.395L130.097 214.038L163.709 195.022L139.469 181.286Z" fill="#EEF2E7"/>
<path d="M169.085 120.475L135.474 139.651L169.085 158.569L202.696 139.522L169.085 120.475Z" fill="#88A057"/>
<path d="M173.08 122.79L139.469 141.9L163.708 155.542L197.32 136.526L173.08 122.79Z" fill="#EEF2E7"/>
<path d="M274.189 26.2749L173.08 83.7589L197.32 97.4016L298.594 40.1042L274.189 26.2749Z" fill="#EEF2E7"/>
<path d="M102.054 279.765L102.168 279.7L102.054 279.636V279.765Z" fill="#373D68"/>
<path d="M130.2 295.606V335.089L135.56 338.126V337.377V298.623L130.2 295.606Z" fill="#373D68"/>
<path d="M106.036 282.007L102.054 279.765V319.139L106.036 321.395V282.007Z" fill="#373D68"/>
<path d="M264.652 101.963L269.586 104.74L302.978 85.8177L298.088 83.0457L264.652 101.963Z" fill="#687AB2"/>
<path d="M273.798 69.331L269.586 66.9603L269.642 66.9283L269.586 66.895L236.222 85.9296L240.42 88.3083L273.798 69.331Z" fill="#687AB2"/>
<path d="M269.586 104.836V104.74L264.651 101.963L264.583 102.001L269.586 104.836Z" fill="#B96A6A"/>
<path d="M307.349 50.256L331.679 64.0427L298.128 83.024L303.035 85.7853L303.092 85.7533V85.688L336.484 66.7653L303.092 47.844L269.643 66.928L273.841 69.3067L307.349 50.256Z" fill="#687AB2"/>
<path d="M273.798 69.331L273.841 69.307L269.642 66.9283L269.586 66.9603L273.798 69.331Z" fill="#687AB2"/>
<path d="M102.054 357.112V351.088L78.2073 337.324L102.054 323.719V319.139L68.5473 338.255L102.054 357.112Z" fill="#687AB2"/>
<path d="M106.036 321.446V321.396L102.054 319.138V323.718L106.036 321.446Z" fill="#687AB2"/>
<path d="M130.2 335.088V335.139L102.053 351.088V357.112L135.56 338.125L130.2 335.088Z" fill="#687AB2"/>
<path d="M78.2069 337.324L102.054 351.089V323.719L78.2069 337.324Z" fill="#E8EBF4"/>
<path d="M106.036 321.446L102.054 323.718V351.089L130.2 335.14L106.036 321.446Z" fill="#E8EBF4"/>
<path d="M130.2 295.606L112.883 285.861L106.036 282.006V321.395L130.2 335.089V295.606Z" fill="#D4D8E8"/>
<path d="M130.2 335.088L106.036 321.395V321.447L130.2 335.139V335.088Z" fill="#D4D8E8"/>
<path d="M169.067 279.507V240.449L163.707 237.432V276.599L168.952 279.571L169.067 279.507Z" fill="#373D68"/>
<path d="M139.543 223.833L135.56 221.592V260.649L139.543 262.905V223.833Z" fill="#373D68"/>
<path d="M135.561 221.592L135.675 221.526L135.561 221.462V221.592Z" fill="#373D68"/>
<path d="M163.707 237.432L154.688 232.356L139.543 223.832V262.906L163.707 276.598V237.432Z" fill="#D4D8E8"/>
<path d="M202.573 220.783V182.137L197.213 179.119V218.425L202.573 221.462V220.783Z" fill="#373D68"/>
<path d="M169.067 163.279L169.107 163.256L169.067 163.233V163.279Z" fill="#373D68"/>
<path d="M173.049 165.52L169.066 163.278V202.476L173.049 204.732V165.52Z" fill="#373D68"/>
<path d="M197.213 179.119L180.326 169.615L173.049 165.519V204.731L197.213 218.425V179.119Z" fill="#D4D8E8"/>
<path d="M202.573 220.783V182.219L236.08 163.233V163.149L202.573 182.137V220.783Z" fill="#373D68"/>
<path d="M230.719 121.161V160.111L236.079 163.15V123.823L231.034 120.983L230.719 121.161Z" fill="#373D68"/>
<path d="M206.555 107.561V107.206L202.573 104.965V144.162L206.555 146.418V107.561Z" fill="#373D68"/>
<path d="M202.572 104.965L202.658 104.917L202.572 104.869V104.965Z" fill="#373D68"/>
<path d="M206.555 107.562L206.869 107.383L206.555 107.207V107.562Z" fill="#D4D8E8"/>
<path d="M230.719 121.161L206.555 107.561V146.419L230.719 160.111V121.161Z" fill="#D4D8E8"/>
<path d="M102.054 357.113L68.5473 338.255V569.405L102.054 591.138V395.55V357.113Z" fill="#373D68"/>
<path d="M236.08 202.796L236.96 202.327L236.08 201.796V202.796Z" fill="#39498D"/>
<path d="M169.067 511.762V395.087L300.428 320.217L301.265 437.355L169.067 511.762ZM321.213 277.459L337.228 268.238L336.599 66.7006L336.484 66.7659L336.599 66.8312L303.092 85.8179L303.035 85.7859L302.977 85.8179L303.092 85.8819L269.585 104.87V145.533L301.265 128.762L300.428 284.907L168.531 360.434V357.235L135.56 337.377V338.126V415.731L102.053 395.55V591.138L135.56 572.121L169.067 551.939L202.979 532.534L237.908 512.507L271.285 493.335L305.439 473.542L337.812 454.918L337.303 291.993L321.213 302.354V277.459Z" fill="#39498D"/>
<path d="M202.573 220.784V221.462V299.329L169.067 279.148V279.636V319.16L204.352 299.453V260.969L237.681 241.062L236.08 202.796V240.965L202.573 220.784Z" fill="#39498D"/>
<path d="M102.054 395.55L135.561 415.731V338.126L102.054 357.112V395.55Z" fill="#39498D"/>
<path d="M269.586 104.836V104.869L303.092 85.8827L302.978 85.8174L269.586 104.74V104.836Z" fill="#39498D"/>
<path d="M236.079 123.823V163.15V163.234V201.796L236.959 202.327L268.83 185.336V145.932L269.586 145.532V104.87L269.557 104.852L236.079 123.823Z" fill="#39498D"/>
<path d="M269.556 104.853L269.586 104.869V104.836L269.556 104.853Z" fill="#39498D"/>
<path d="M303.092 85.7528L303.035 85.7848L303.092 85.8181L336.599 66.8301L336.484 66.7661L303.092 85.6888V85.7528Z" fill="#39498D"/>
<path d="M169.066 240.45V279.506L168.951 279.571L169.067 279.635V279.147V240.45H169.066Z" fill="#39498D"/>
<path d="M169.067 319.159V279.635L135.56 298.623V337.377L168.531 357.235V319.459L169.067 319.159Z" fill="#39498D"/>
<path d="M169.067 240.449V279.147L202.573 299.328V221.463L193.673 226.505L169.067 240.449Z" fill="#39498D"/>
<path d="M202.573 220.784L236.08 240.965V202.796V201.796V163.233L202.573 182.22V220.784Z" fill="#39498D"/>
<path d="M206.555 107.11L206.954 107.334L236.079 90.7758V86.0118V85.8825L236.194 85.9465L236.222 85.9305L236.079 85.8491L202.658 104.917L206.555 107.11Z" fill="#687AB2"/>
<path d="M236.079 118.128L231.118 120.935L236.079 123.727V118.128Z" fill="#687AB2"/>
<path d="M240.405 88.3167L240.419 88.3087L236.222 85.93L236.194 85.946L240.405 88.3167Z" fill="#687AB2"/>
<path d="M236.079 118.128V123.727V123.823L269.557 104.853L264.537 102.028L236.079 118.128Z" fill="#687AB2"/>
<path d="M236.08 86.012L236.195 85.9466L236.08 85.8826V86.012Z" fill="#687AB2"/>
<path d="M236.079 86.0116V90.7756L240.29 88.381L236.079 86.0116Z" fill="#687AB2"/>
<path d="M240.405 88.3167L236.194 85.946L236.079 86.0114L240.29 88.382L240.405 88.3167Z" fill="#687AB2"/>
<path d="M264.537 102.028L269.556 104.853L269.585 104.836L264.584 102.001L264.537 102.028Z" fill="#687AB2"/>
<path d="M206.555 107.111L202.658 104.917L202.573 104.965L206.555 107.207V107.111Z" fill="#687AB2"/>
<path d="M231.118 120.935L231.033 120.983L236.08 123.823V123.727L231.118 120.935Z" fill="#687AB2"/>
<path d="M206.555 107.206L206.869 107.382L206.954 107.334L206.555 107.11V107.206Z" fill="#687AB2"/>
<path d="M135.56 298.493V292.573L130.315 295.541L135.56 298.493Z" fill="#687AB2"/>
<path d="M135.56 265.221V260.649L102.168 279.7L106.151 281.941L135.56 265.221Z" fill="#687AB2"/>
<path d="M106.036 281.877L106.151 281.941L102.168 279.7L102.054 279.765L106.036 282.007V281.877Z" fill="#687AB2"/>
<path d="M130.315 295.541L130.2 295.607L135.56 298.623V298.493L130.315 295.541Z" fill="#687AB2"/>
<path d="M106.036 282.007L106.151 281.942L106.036 281.878V282.007Z" fill="#687AB2"/>
<path d="M168.952 279.571L163.706 276.599V276.65V276.966L163.427 276.807L135.56 292.574V298.494L168.952 279.571Z" fill="#687AB2"/>
<path d="M139.543 262.957V262.905L135.56 260.649V265.221L139.543 262.957Z" fill="#687AB2"/>
<path d="M163.427 276.807L163.707 276.966V276.65L163.427 276.807Z" fill="#687AB2"/>
<path d="M163.707 276.598L139.543 262.905V262.957L163.707 276.65V276.598Z" fill="#687AB2"/>
<path d="M135.56 298.493V298.623L169.067 279.636L168.952 279.571L135.56 298.493Z" fill="#687AB2"/>
<path d="M130.2 295.477L130.315 295.541L135.56 292.574V265.221L106.151 281.942L112.883 285.731L130.2 295.477Z" fill="#E8EBF4"/>
<path d="M130.2 295.606L130.314 295.541L130.2 295.477V295.606Z" fill="#E8EBF4"/>
<path d="M112.883 285.86L130.201 295.605V295.476L112.883 285.731L106.151 281.941L106.037 282.007L112.883 285.86Z" fill="#E8EBF4"/>
<path d="M163.428 276.808L139.542 263.273V262.957L135.561 265.221V292.573L163.428 276.808Z" fill="#E8EBF4"/>
<path d="M163.428 276.808L163.706 276.65L139.542 262.957V263.273L163.428 276.808Z" fill="#E8EBF4"/>
<path d="M169.067 234.4L163.821 237.368L169.067 240.32V234.4Z" fill="#687AB2"/>
<path d="M169.067 207.048V202.476L135.675 221.526L139.657 223.768L169.067 207.048Z" fill="#687AB2"/>
<path d="M139.543 223.704L139.657 223.768L135.675 221.526L135.56 221.592L139.543 223.833V223.704Z" fill="#687AB2"/>
<path d="M169.067 240.449V240.32L163.821 237.368L163.707 237.432L169.067 240.449Z" fill="#687AB2"/>
<path d="M139.542 223.833L139.657 223.768L139.542 223.704V223.833Z" fill="#687AB2"/>
<path d="M169.067 240.449L193.673 226.506L202.573 221.462L197.212 218.425V218.476V218.737L196.983 218.606L169.067 234.4V240.32V240.449Z" fill="#687AB2"/>
<path d="M173.049 204.783V204.731L169.066 202.475V207.047L173.049 204.783Z" fill="#687AB2"/>
<path d="M196.983 218.606L197.213 218.737V218.477L196.983 218.606Z" fill="#687AB2"/>
<path d="M197.213 218.425L173.049 204.731V204.783L197.213 218.477V218.425Z" fill="#687AB2"/>
<path d="M169.066 240.45H169.067V240.449L169.066 240.45Z" fill="#687AB2"/>
<path d="M163.707 237.303L163.821 237.367L169.067 234.4V207.047L139.657 223.768L154.688 232.227L163.707 237.303Z" fill="#E8EBF4"/>
<path d="M163.707 237.433L163.821 237.367L163.707 237.303V237.433Z" fill="#E8EBF4"/>
<path d="M154.687 232.357L163.706 237.433V237.303L154.687 232.227L139.657 223.769L139.543 223.833L154.687 232.357Z" fill="#E8EBF4"/>
<path d="M196.983 218.606L173.049 205.044V204.784L169.067 207.048V234.4L196.983 218.606Z" fill="#E8EBF4"/>
<path d="M196.983 218.606L197.213 218.476L173.049 204.784V205.044L196.983 218.606Z" fill="#E8EBF4"/>
<path d="M202.573 148.734V144.162L169.106 163.255L173.089 165.497L202.573 148.734Z" fill="#687AB2"/>
<path d="M202.573 176.087L197.253 179.096L202.573 182.091V176.087Z" fill="#687AB2"/>
<path d="M202.573 182.136V182.091L197.253 179.096L197.213 179.119L202.573 182.136Z" fill="#687AB2"/>
<path d="M173.049 165.52V165.474L173.089 165.497L169.106 163.256L169.066 163.278L173.049 165.52Z" fill="#687AB2"/>
<path d="M173.049 165.519L173.09 165.497L173.049 165.475V165.519Z" fill="#687AB2"/>
<path d="M206.555 146.47V146.419L202.573 144.162V148.734L206.555 146.47Z" fill="#687AB2"/>
<path d="M230.719 160.163V160.372L230.534 160.268L202.572 176.087V182.091V182.136L236.079 163.15L230.719 160.112V160.163Z" fill="#687AB2"/>
<path d="M230.534 160.268L230.719 160.372V160.163L230.534 160.268Z" fill="#687AB2"/>
<path d="M230.719 160.112L206.555 146.42V146.47L230.719 160.162V160.112Z" fill="#687AB2"/>
<path d="M197.213 179.074L197.253 179.097L202.573 176.087V148.734L173.089 165.497L188.941 174.419L197.213 179.074Z" fill="#E8EBF4"/>
<path d="M197.213 179.119L197.253 179.096L197.213 179.075V179.119Z" fill="#E8EBF4"/>
<path d="M197.213 179.119V179.074L188.941 174.418L173.089 165.497L173.049 165.519L180.326 169.615L197.213 179.119Z" fill="#E8EBF4"/>
<path d="M230.534 160.268L206.555 146.68V146.47L202.573 148.734V176.086L230.534 160.268Z" fill="#E8EBF4"/>
<path d="M230.534 160.267L230.719 160.162L206.555 146.47V146.679L230.534 160.267Z" fill="#E8EBF4"/>
<path d="M298.088 83.0463L298.128 83.0237L286.339 76.389L298.088 83.0463Z" fill="#E8EBF4"/>
<path d="M264.652 101.963L298.088 83.0457L286.34 76.3883L273.798 69.331L240.42 88.3083L244.693 90.7297L264.652 101.963Z" fill="#E8EBF4"/>
<path d="M264.584 102.001L264.652 101.963L244.693 90.7307L264.584 102.001Z" fill="#E8EBF4"/>
<path d="M298.128 83.0239L331.679 64.0425L307.349 50.2559L273.841 69.3065L286.339 76.3892L298.128 83.0239Z" fill="#E8EBF4"/>
<path d="M273.841 69.3067L273.798 69.3307L286.34 76.3893L273.841 69.3067Z" fill="#E8EBF4"/>
<path d="M230.72 121.16L231.033 120.983L230.72 120.805V121.16Z" fill="#E8EBF4"/>
<path d="M230.719 120.806L206.868 107.383L206.555 107.561L230.719 121.161V120.806Z" fill="#E8EBF4"/>
<path d="M231.118 120.935L236.08 118.128V90.776L206.953 107.335L221.972 115.787L231.118 120.935Z" fill="#E8EBF4"/>
<path d="M240.419 88.3083L240.405 88.3163L244.694 90.7296L240.419 88.3083Z" fill="#E8EBF4"/>
<path d="M264.537 102.028L240.291 88.3812L236.08 90.7759V118.128L264.537 102.028Z" fill="#E8EBF4"/>
<path d="M264.537 102.028L264.584 102.001L244.693 90.7305L240.405 88.3172L240.291 88.3812L264.537 102.028Z" fill="#E8EBF4"/>
<path d="M231.118 120.935L221.972 115.787L230.72 120.711V120.807L231.033 120.983L231.118 120.935Z" fill="#E8EBF4"/>
<path d="M221.971 115.787L206.954 107.335L206.869 107.383L230.719 120.805V120.711L221.971 115.787Z" fill="#E8EBF4"/>
<path d="M269.586 145.533L268.83 145.933V185.337L236.959 202.326L236.079 202.796L237.682 241.062L204.352 260.969V299.453L169.067 319.16V357.558L168.531 357.234V360.434L300.427 284.906L301.264 128.761L269.586 145.533Z" fill="#D4D8E8"/>
<path d="M168.531 319.459V357.235L169.067 357.557V319.159L168.531 319.459Z" fill="#F1F2F2"/>
<path d="M169.067 395.087V511.762L301.265 437.355L300.428 320.216L169.067 395.087Z" fill="#D4D8E8"/>
</svg>
